<?xml version="1.0" standalone="no"?>
<!DOCTYPE svg PUBLIC "-//W3C//DTD SVG 20010904//EN"
 "http://www.w3.org/TR/2001/REC-SVG-20010904/DTD/svg10.dtd">
<svg version="1.0" xmlns="http://www.w3.org/2000/svg"
 width="512.000000pt" height="512.000000pt" viewBox="0 0 512.000000 512.000000"
 preserveAspectRatio="xMidYMid meet">
<metadata>
Created by potrace 1.11, written by Peter Selinger 2001-2013
</metadata>
<g transform="translate(0.000000,512.000000) scale(0.100000,-0.100000)"
fill="#000000" stroke="none">
<path d="M892 3548 c-9 -9 -12 -134 -12 -500 0 -481 0 -488 -20 -488 -19 0
-20 -7 -20 -120 0 -113 1 -120 20 -120 20 0 20 -7 20 -369 0 -324 2 -370 16
-382 11 -9 20 -10 32 -2 15 9 17 48 20 382 l2 371 255 0 255 0 0 -369 c0 -310
2 -370 15 -381 19 -16 52 -4 59 23 3 12 6 181 6 375 0 306 2 352 15 352 13 0
15 20 15 120 l0 120 -310 0 -310 0 0 488 c0 493 -1 512 -35 512 -6 0 -16 -5
-23 -12z"/>
<path d="M4182 3548 c-9 -9 -12 -134 -12 -500 l0 -488 -310 0 -310 0 0 -120
c0 -100 3 -120 15 -120 13 0 15 -47 15 -361 0 -229 4 -367 10 -380 12 -21 40
-25 58 -7 9 9 12 107 12 380 l0 368 255 0 255 0 0 -369 c0 -310 2 -370 15
-381 19 -16 52 -4 59 23 3 12 6 181 6 375 0 306 2 352 15 352 13 0 15 20 15
120 0 99 -3 120 -15 120 -12 0 -15 66 -17 490 -3 423 -5 492 -18 500 -20 13
-34 12 -48 -2z"/>
<path d="M1749 3257 c-72 -48 -69 -14 -69 -768 0 -540 3 -679 13 -693 10 -13
36 -20 103 -28 158 -17 388 16 610 87 58 19 108 35 110 35 2 0 4 -56 4 -125
l0 -125 -221 0 c-226 0 -259 -5 -259 -39 0 -41 8 -41 525 -39 462 3 499 4 509
21 8 12 8 22 0 35 -10 15 -35 17 -243 20 l-231 2 0 144 0 143 97 37 c248 94
450 82 611 -36 71 -51 92 -57 116 -32 14 14 16 86 16 650 0 701 2 675 -63 714
-31 19 -56 20 -813 20 l-781 0 -34 -23z"/>
</g>
</svg>
